%TF.GenerationSoftware,KiCad,Pcbnew,7.0.9-7.0.9~ubuntu22.04.1*%
%TF.CreationDate,2023-12-20T07:42:30+01:00*%
%TF.ProjectId,RobotMotorController,526f626f-744d-46f7-946f-72436f6e7472,rev?*%
%TF.SameCoordinates,Original*%
%TF.FileFunction,Legend,Bot*%
%TF.FilePolarity,Positive*%
%FSLAX46Y46*%
G04 Gerber Fmt 4.6, Leading zero omitted, Abs format (unit mm)*
G04 Created by KiCad (PCBNEW 7.0.9-7.0.9~ubuntu22.04.1) date 2023-12-20 07:42:30*
%MOMM*%
%LPD*%
G01*
G04 APERTURE LIST*
G04 Aperture macros list*
%AMRoundRect*
0 Rectangle with rounded corners*
0 $1 Rounding radius*
0 $2 $3 $4 $5 $6 $7 $8 $9 X,Y pos of 4 corners*
0 Add a 4 corners polygon primitive as box body*
4,1,4,$2,$3,$4,$5,$6,$7,$8,$9,$2,$3,0*
0 Add four circle primitives for the rounded corners*
1,1,$1+$1,$2,$3*
1,1,$1+$1,$4,$5*
1,1,$1+$1,$6,$7*
1,1,$1+$1,$8,$9*
0 Add four rect primitives between the rounded corners*
20,1,$1+$1,$2,$3,$4,$5,0*
20,1,$1+$1,$4,$5,$6,$7,0*
20,1,$1+$1,$6,$7,$8,$9,0*
20,1,$1+$1,$8,$9,$2,$3,0*%
G04 Aperture macros list end*
%ADD10O,2.000000X1.600000*%
%ADD11O,1.600000X2.000000*%
%ADD12C,1.000000*%
%ADD13C,6.600000*%
%ADD14RoundRect,0.350000X0.845000X-0.620000X0.845000X0.620000X-0.845000X0.620000X-0.845000X-0.620000X0*%
%ADD15O,2.390000X1.940000*%
%ADD16RoundRect,0.100000X-0.800000X-0.800000X0.800000X-0.800000X0.800000X0.800000X-0.800000X0.800000X0*%
%ADD17C,1.800000*%
%ADD18RoundRect,1.600000X1.500000X1.500000X-1.500000X1.500000X-1.500000X-1.500000X1.500000X-1.500000X0*%
%ADD19C,6.200000*%
%ADD20RoundRect,1.600000X-1.500000X-1.500000X1.500000X-1.500000X1.500000X1.500000X-1.500000X1.500000X0*%
%ADD21RoundRect,0.350000X0.620000X0.845000X-0.620000X0.845000X-0.620000X-0.845000X0.620000X-0.845000X0*%
%ADD22O,1.940000X2.390000*%
G04 APERTURE END LIST*
%LPC*%
D10*
%TO.C,U1*%
X8890000Y-2085000D03*
X8890000Y455000D03*
X8890000Y2995000D03*
X8890000Y5535000D03*
X8890000Y8075000D03*
X8890000Y10615000D03*
X8890000Y13155000D03*
X8890000Y15695000D03*
X8890000Y18235000D03*
X8890000Y20775000D03*
X8890000Y23315000D03*
X8890000Y25855000D03*
X8890000Y28395000D03*
X8890000Y30935000D03*
X8890000Y33475000D03*
X8890000Y36015000D03*
X8890000Y38555000D03*
X8890000Y41095000D03*
X8890000Y43635000D03*
X8890000Y46175000D03*
X-8890000Y46175000D03*
X-8890000Y43635000D03*
X-8890000Y41095000D03*
X-8890000Y38555000D03*
X-8890000Y36015000D03*
X-8890000Y33475000D03*
X-8890000Y30935000D03*
X-8890000Y28395000D03*
X-8890000Y25855000D03*
X-8890000Y23315000D03*
X-8890000Y20775000D03*
X-8890000Y18235000D03*
X-8890000Y15695000D03*
X-8890000Y13155000D03*
X-8890000Y10615000D03*
X-8890000Y8075000D03*
X-8890000Y5535000D03*
X-8890000Y2995000D03*
X-8890000Y455000D03*
X-8890000Y-2085000D03*
D11*
X3810000Y46175000D03*
X1270000Y46175000D03*
X-1270000Y46175000D03*
X-3810000Y46175000D03*
D10*
X-6350000Y5535000D03*
X-6350000Y8075000D03*
%TD*%
D12*
%TO.C,H1*%
X32600000Y75000000D03*
X33302944Y76697056D03*
X33302944Y73302944D03*
X35000000Y77400000D03*
D13*
X35000000Y75000000D03*
D12*
X35000000Y72600000D03*
X36697056Y76697056D03*
X36697056Y73302944D03*
X37400000Y75000000D03*
%TD*%
%TO.C,H3*%
X32600000Y0D03*
X33302944Y1697056D03*
X33302944Y-1697056D03*
X35000000Y2400000D03*
D13*
X35000000Y0D03*
D12*
X35000000Y-2400000D03*
X36697056Y1697056D03*
X36697056Y-1697056D03*
X37400000Y0D03*
%TD*%
D14*
%TO.C,M2*%
X29950000Y34110000D03*
D15*
X29950000Y36650000D03*
X29950000Y39190000D03*
X29950000Y41730000D03*
X29950000Y44270000D03*
X29950000Y46810000D03*
%TD*%
D14*
%TO.C,J5*%
X-29740000Y6170000D03*
D15*
X-29740000Y8710000D03*
X-29740000Y11250000D03*
X-29740000Y13790000D03*
%TD*%
D14*
%TO.C,P2*%
X29950000Y51890000D03*
D15*
X29950000Y54430000D03*
%TD*%
D14*
%TO.C,P1*%
X-29740000Y51890000D03*
D15*
X-29740000Y54430000D03*
%TD*%
D14*
%TO.C,E2*%
X29950000Y18870000D03*
D15*
X29950000Y21410000D03*
X29950000Y23950000D03*
X29950000Y26490000D03*
X29950000Y29030000D03*
%TD*%
D16*
%TO.C,C20*%
X-25002651Y63800000D03*
D17*
X-20002651Y63800000D03*
%TD*%
D18*
%TO.C,J10*%
X-16966000Y-254000D03*
D19*
X-24166000Y-254000D03*
%TD*%
D14*
%TO.C,J3*%
X29970000Y6170000D03*
D15*
X29970000Y8710000D03*
X29970000Y11250000D03*
X29970000Y13790000D03*
%TD*%
D14*
%TO.C,M1*%
X-29740000Y34110000D03*
D15*
X-29740000Y36650000D03*
X-29740000Y39190000D03*
X-29740000Y41730000D03*
X-29740000Y44270000D03*
X-29740000Y46810000D03*
%TD*%
D14*
%TO.C,P3*%
X-29740000Y59510000D03*
D15*
X-29740000Y62050000D03*
%TD*%
D20*
%TO.C,J8*%
X16966000Y-254000D03*
D19*
X24166000Y-254000D03*
%TD*%
D21*
%TO.C,J4*%
X26902000Y70198000D03*
D22*
X24362000Y70198000D03*
X21822000Y70198000D03*
X19282000Y70198000D03*
%TD*%
D12*
%TO.C,H2*%
X-37400000Y75000000D03*
X-36697056Y76697056D03*
X-36697056Y73302944D03*
X-35000000Y77400000D03*
D13*
X-35000000Y75000000D03*
D12*
X-35000000Y72600000D03*
X-33302944Y76697056D03*
X-33302944Y73302944D03*
X-32600000Y75000000D03*
%TD*%
D14*
%TO.C,E1*%
X-29740000Y18870000D03*
D15*
X-29740000Y21410000D03*
X-29740000Y23950000D03*
X-29740000Y26490000D03*
X-29740000Y29030000D03*
%TD*%
D14*
%TO.C,P4*%
X29950000Y59510000D03*
D15*
X29950000Y62050000D03*
%TD*%
D21*
%TO.C,J9*%
X14710000Y70178000D03*
D22*
X12170000Y70178000D03*
X9630000Y70178000D03*
X7090000Y70178000D03*
%TD*%
D18*
%TO.C,J1*%
X-16800000Y73000000D03*
D19*
X-24000000Y73000000D03*
%TD*%
D12*
%TO.C,H4*%
X-37400000Y0D03*
X-36697056Y1697056D03*
X-36697056Y-1697056D03*
X-35000000Y2400000D03*
D13*
X-35000000Y0D03*
D12*
X-35000000Y-2400000D03*
X-33302944Y1697056D03*
X-33302944Y-1697056D03*
X-32600000Y0D03*
%TD*%
%LPD*%
M02*
