%TF.GenerationSoftware,KiCad,Pcbnew,7.0.9-7.0.9~ubuntu22.04.1*%
%TF.CreationDate,2023-12-20T07:42:30+01:00*%
%TF.ProjectId,RobotMotorController,526f626f-744d-46f7-946f-72436f6e7472,rev?*%
%TF.SameCoordinates,Original*%
%TF.FileFunction,Other,Comment*%
%FSLAX46Y46*%
G04 Gerber Fmt 4.6, Leading zero omitted, Abs format (unit mm)*
G04 Created by KiCad (PCBNEW 7.0.9-7.0.9~ubuntu22.04.1) date 2023-12-20 07:42:30*
%MOMM*%
%LPD*%
G01*
G04 APERTURE LIST*
%ADD10C,0.150000*%
G04 APERTURE END LIST*
D10*
X0Y80000000D02*
X0Y0D01*
X-45045181Y34261906D02*
X-45045181Y34928572D01*
X-45045181Y34928572D02*
X-44045181Y34500001D01*
X-45045181Y35785715D02*
X-45045181Y35309525D01*
X-45045181Y35309525D02*
X-44568991Y35261906D01*
X-44568991Y35261906D02*
X-44616610Y35309525D01*
X-44616610Y35309525D02*
X-44664229Y35404763D01*
X-44664229Y35404763D02*
X-44664229Y35642858D01*
X-44664229Y35642858D02*
X-44616610Y35738096D01*
X-44616610Y35738096D02*
X-44568991Y35785715D01*
X-44568991Y35785715D02*
X-44473753Y35833334D01*
X-44473753Y35833334D02*
X-44235658Y35833334D01*
X-44235658Y35833334D02*
X-44140420Y35785715D01*
X-44140420Y35785715D02*
X-44092800Y35738096D01*
X-44092800Y35738096D02*
X-44045181Y35642858D01*
X-44045181Y35642858D02*
X-44045181Y35404763D01*
X-44045181Y35404763D02*
X-44092800Y35309525D01*
X-44092800Y35309525D02*
X-44140420Y35261906D01*
X-44140420Y36261906D02*
X-44092800Y36309525D01*
X-44092800Y36309525D02*
X-44045181Y36261906D01*
X-44045181Y36261906D02*
X-44092800Y36214287D01*
X-44092800Y36214287D02*
X-44140420Y36261906D01*
X-44140420Y36261906D02*
X-44045181Y36261906D01*
X-45045181Y36928572D02*
X-45045181Y37023810D01*
X-45045181Y37023810D02*
X-44997562Y37119048D01*
X-44997562Y37119048D02*
X-44949943Y37166667D01*
X-44949943Y37166667D02*
X-44854705Y37214286D01*
X-44854705Y37214286D02*
X-44664229Y37261905D01*
X-44664229Y37261905D02*
X-44426134Y37261905D01*
X-44426134Y37261905D02*
X-44235658Y37214286D01*
X-44235658Y37214286D02*
X-44140420Y37166667D01*
X-44140420Y37166667D02*
X-44092800Y37119048D01*
X-44092800Y37119048D02*
X-44045181Y37023810D01*
X-44045181Y37023810D02*
X-44045181Y36928572D01*
X-44045181Y36928572D02*
X-44092800Y36833334D01*
X-44092800Y36833334D02*
X-44140420Y36785715D01*
X-44140420Y36785715D02*
X-44235658Y36738096D01*
X-44235658Y36738096D02*
X-44426134Y36690477D01*
X-44426134Y36690477D02*
X-44664229Y36690477D01*
X-44664229Y36690477D02*
X-44854705Y36738096D01*
X-44854705Y36738096D02*
X-44949943Y36785715D01*
X-44949943Y36785715D02*
X-44997562Y36833334D01*
X-44997562Y36833334D02*
X-45045181Y36928572D01*
X-44045181Y38452382D02*
X-44711848Y38452382D01*
X-44616610Y38452382D02*
X-44664229Y38500001D01*
X-44664229Y38500001D02*
X-44711848Y38595239D01*
X-44711848Y38595239D02*
X-44711848Y38738096D01*
X-44711848Y38738096D02*
X-44664229Y38833334D01*
X-44664229Y38833334D02*
X-44568991Y38880953D01*
X-44568991Y38880953D02*
X-44045181Y38880953D01*
X-44568991Y38880953D02*
X-44664229Y38928572D01*
X-44664229Y38928572D02*
X-44711848Y39023810D01*
X-44711848Y39023810D02*
X-44711848Y39166667D01*
X-44711848Y39166667D02*
X-44664229Y39261906D01*
X-44664229Y39261906D02*
X-44568991Y39309525D01*
X-44568991Y39309525D02*
X-44045181Y39309525D01*
X-44045181Y39785715D02*
X-44711848Y39785715D01*
X-44616610Y39785715D02*
X-44664229Y39833334D01*
X-44664229Y39833334D02*
X-44711848Y39928572D01*
X-44711848Y39928572D02*
X-44711848Y40071429D01*
X-44711848Y40071429D02*
X-44664229Y40166667D01*
X-44664229Y40166667D02*
X-44568991Y40214286D01*
X-44568991Y40214286D02*
X-44045181Y40214286D01*
X-44568991Y40214286D02*
X-44664229Y40261905D01*
X-44664229Y40261905D02*
X-44711848Y40357143D01*
X-44711848Y40357143D02*
X-44711848Y40500000D01*
X-44711848Y40500000D02*
X-44664229Y40595239D01*
X-44664229Y40595239D02*
X-44568991Y40642858D01*
X-44568991Y40642858D02*
X-44045181Y40642858D01*
X-35500000Y0D02*
X-45086420Y0D01*
X-35500000Y75000000D02*
X-45086420Y75000000D01*
X-44500000Y0D02*
X-44500000Y33494048D01*
X-44500000Y41505952D02*
X-44500000Y75000000D01*
X-44500000Y0D02*
X-45086421Y1126504D01*
X-44500000Y0D02*
X-43913579Y1126504D01*
X-44500000Y75000000D02*
X-43913579Y73873496D01*
X-44500000Y75000000D02*
X-45086421Y73873496D01*
X-48616610Y34500001D02*
X-48664229Y34404763D01*
X-48664229Y34404763D02*
X-48711848Y34357144D01*
X-48711848Y34357144D02*
X-48807086Y34309525D01*
X-48807086Y34309525D02*
X-48854705Y34309525D01*
X-48854705Y34309525D02*
X-48949943Y34357144D01*
X-48949943Y34357144D02*
X-48997562Y34404763D01*
X-48997562Y34404763D02*
X-49045181Y34500001D01*
X-49045181Y34500001D02*
X-49045181Y34690477D01*
X-49045181Y34690477D02*
X-48997562Y34785715D01*
X-48997562Y34785715D02*
X-48949943Y34833334D01*
X-48949943Y34833334D02*
X-48854705Y34880953D01*
X-48854705Y34880953D02*
X-48807086Y34880953D01*
X-48807086Y34880953D02*
X-48711848Y34833334D01*
X-48711848Y34833334D02*
X-48664229Y34785715D01*
X-48664229Y34785715D02*
X-48616610Y34690477D01*
X-48616610Y34690477D02*
X-48616610Y34500001D01*
X-48616610Y34500001D02*
X-48568991Y34404763D01*
X-48568991Y34404763D02*
X-48521372Y34357144D01*
X-48521372Y34357144D02*
X-48426134Y34309525D01*
X-48426134Y34309525D02*
X-48235658Y34309525D01*
X-48235658Y34309525D02*
X-48140420Y34357144D01*
X-48140420Y34357144D02*
X-48092800Y34404763D01*
X-48092800Y34404763D02*
X-48045181Y34500001D01*
X-48045181Y34500001D02*
X-48045181Y34690477D01*
X-48045181Y34690477D02*
X-48092800Y34785715D01*
X-48092800Y34785715D02*
X-48140420Y34833334D01*
X-48140420Y34833334D02*
X-48235658Y34880953D01*
X-48235658Y34880953D02*
X-48426134Y34880953D01*
X-48426134Y34880953D02*
X-48521372Y34833334D01*
X-48521372Y34833334D02*
X-48568991Y34785715D01*
X-48568991Y34785715D02*
X-48616610Y34690477D01*
X-49045181Y35785715D02*
X-49045181Y35309525D01*
X-49045181Y35309525D02*
X-48568991Y35261906D01*
X-48568991Y35261906D02*
X-48616610Y35309525D01*
X-48616610Y35309525D02*
X-48664229Y35404763D01*
X-48664229Y35404763D02*
X-48664229Y35642858D01*
X-48664229Y35642858D02*
X-48616610Y35738096D01*
X-48616610Y35738096D02*
X-48568991Y35785715D01*
X-48568991Y35785715D02*
X-48473753Y35833334D01*
X-48473753Y35833334D02*
X-48235658Y35833334D01*
X-48235658Y35833334D02*
X-48140420Y35785715D01*
X-48140420Y35785715D02*
X-48092800Y35738096D01*
X-48092800Y35738096D02*
X-48045181Y35642858D01*
X-48045181Y35642858D02*
X-48045181Y35404763D01*
X-48045181Y35404763D02*
X-48092800Y35309525D01*
X-48092800Y35309525D02*
X-48140420Y35261906D01*
X-48140420Y36261906D02*
X-48092800Y36309525D01*
X-48092800Y36309525D02*
X-48045181Y36261906D01*
X-48045181Y36261906D02*
X-48092800Y36214287D01*
X-48092800Y36214287D02*
X-48140420Y36261906D01*
X-48140420Y36261906D02*
X-48045181Y36261906D01*
X-49045181Y36928572D02*
X-49045181Y37023810D01*
X-49045181Y37023810D02*
X-48997562Y37119048D01*
X-48997562Y37119048D02*
X-48949943Y37166667D01*
X-48949943Y37166667D02*
X-48854705Y37214286D01*
X-48854705Y37214286D02*
X-48664229Y37261905D01*
X-48664229Y37261905D02*
X-48426134Y37261905D01*
X-48426134Y37261905D02*
X-48235658Y37214286D01*
X-48235658Y37214286D02*
X-48140420Y37166667D01*
X-48140420Y37166667D02*
X-48092800Y37119048D01*
X-48092800Y37119048D02*
X-48045181Y37023810D01*
X-48045181Y37023810D02*
X-48045181Y36928572D01*
X-48045181Y36928572D02*
X-48092800Y36833334D01*
X-48092800Y36833334D02*
X-48140420Y36785715D01*
X-48140420Y36785715D02*
X-48235658Y36738096D01*
X-48235658Y36738096D02*
X-48426134Y36690477D01*
X-48426134Y36690477D02*
X-48664229Y36690477D01*
X-48664229Y36690477D02*
X-48854705Y36738096D01*
X-48854705Y36738096D02*
X-48949943Y36785715D01*
X-48949943Y36785715D02*
X-48997562Y36833334D01*
X-48997562Y36833334D02*
X-49045181Y36928572D01*
X-48045181Y38452382D02*
X-48711848Y38452382D01*
X-48616610Y38452382D02*
X-48664229Y38500001D01*
X-48664229Y38500001D02*
X-48711848Y38595239D01*
X-48711848Y38595239D02*
X-48711848Y38738096D01*
X-48711848Y38738096D02*
X-48664229Y38833334D01*
X-48664229Y38833334D02*
X-48568991Y38880953D01*
X-48568991Y38880953D02*
X-48045181Y38880953D01*
X-48568991Y38880953D02*
X-48664229Y38928572D01*
X-48664229Y38928572D02*
X-48711848Y39023810D01*
X-48711848Y39023810D02*
X-48711848Y39166667D01*
X-48711848Y39166667D02*
X-48664229Y39261906D01*
X-48664229Y39261906D02*
X-48568991Y39309525D01*
X-48568991Y39309525D02*
X-48045181Y39309525D01*
X-48045181Y39785715D02*
X-48711848Y39785715D01*
X-48616610Y39785715D02*
X-48664229Y39833334D01*
X-48664229Y39833334D02*
X-48711848Y39928572D01*
X-48711848Y39928572D02*
X-48711848Y40071429D01*
X-48711848Y40071429D02*
X-48664229Y40166667D01*
X-48664229Y40166667D02*
X-48568991Y40214286D01*
X-48568991Y40214286D02*
X-48045181Y40214286D01*
X-48568991Y40214286D02*
X-48664229Y40261905D01*
X-48664229Y40261905D02*
X-48711848Y40357143D01*
X-48711848Y40357143D02*
X-48711848Y40500000D01*
X-48711848Y40500000D02*
X-48664229Y40595239D01*
X-48664229Y40595239D02*
X-48568991Y40642858D01*
X-48568991Y40642858D02*
X-48045181Y40642858D01*
X-40500000Y80000000D02*
X-49086420Y80000000D01*
X-40500000Y-5000000D02*
X-49086420Y-5000000D01*
X-48500000Y80000000D02*
X-48500000Y41505952D01*
X-48500000Y33494048D02*
X-48500000Y-5000000D01*
X-48500000Y80000000D02*
X-47913579Y78873496D01*
X-48500000Y80000000D02*
X-49086421Y78873496D01*
X-48500000Y-5000000D02*
X-49086421Y-3873496D01*
X-48500000Y-5000000D02*
X-47913579Y-3873496D01*
X-3238095Y83045181D02*
X-2571429Y83045181D01*
X-2571429Y83045181D02*
X-3000000Y82045181D01*
X-2000000Y83045181D02*
X-1904762Y83045181D01*
X-1904762Y83045181D02*
X-1809524Y82997562D01*
X-1809524Y82997562D02*
X-1761905Y82949943D01*
X-1761905Y82949943D02*
X-1714286Y82854705D01*
X-1714286Y82854705D02*
X-1666667Y82664229D01*
X-1666667Y82664229D02*
X-1666667Y82426134D01*
X-1666667Y82426134D02*
X-1714286Y82235658D01*
X-1714286Y82235658D02*
X-1761905Y82140420D01*
X-1761905Y82140420D02*
X-1809524Y82092800D01*
X-1809524Y82092800D02*
X-1904762Y82045181D01*
X-1904762Y82045181D02*
X-2000000Y82045181D01*
X-2000000Y82045181D02*
X-2095238Y82092800D01*
X-2095238Y82092800D02*
X-2142857Y82140420D01*
X-2142857Y82140420D02*
X-2190476Y82235658D01*
X-2190476Y82235658D02*
X-2238095Y82426134D01*
X-2238095Y82426134D02*
X-2238095Y82664229D01*
X-2238095Y82664229D02*
X-2190476Y82854705D01*
X-2190476Y82854705D02*
X-2142857Y82949943D01*
X-2142857Y82949943D02*
X-2095238Y82997562D01*
X-2095238Y82997562D02*
X-2000000Y83045181D01*
X-1238095Y82140420D02*
X-1190476Y82092800D01*
X-1190476Y82092800D02*
X-1238095Y82045181D01*
X-1238095Y82045181D02*
X-1285714Y82092800D01*
X-1285714Y82092800D02*
X-1238095Y82140420D01*
X-1238095Y82140420D02*
X-1238095Y82045181D01*
X-571429Y83045181D02*
X-476191Y83045181D01*
X-476191Y83045181D02*
X-380953Y82997562D01*
X-380953Y82997562D02*
X-333334Y82949943D01*
X-333334Y82949943D02*
X-285715Y82854705D01*
X-285715Y82854705D02*
X-238096Y82664229D01*
X-238096Y82664229D02*
X-238096Y82426134D01*
X-238096Y82426134D02*
X-285715Y82235658D01*
X-285715Y82235658D02*
X-333334Y82140420D01*
X-333334Y82140420D02*
X-380953Y82092800D01*
X-380953Y82092800D02*
X-476191Y82045181D01*
X-476191Y82045181D02*
X-571429Y82045181D01*
X-571429Y82045181D02*
X-666667Y82092800D01*
X-666667Y82092800D02*
X-714286Y82140420D01*
X-714286Y82140420D02*
X-761905Y82235658D01*
X-761905Y82235658D02*
X-809524Y82426134D01*
X-809524Y82426134D02*
X-809524Y82664229D01*
X-809524Y82664229D02*
X-761905Y82854705D01*
X-761905Y82854705D02*
X-714286Y82949943D01*
X-714286Y82949943D02*
X-666667Y82997562D01*
X-666667Y82997562D02*
X-571429Y83045181D01*
X952381Y82045181D02*
X952381Y82711848D01*
X952381Y82616610D02*
X1000000Y82664229D01*
X1000000Y82664229D02*
X1095238Y82711848D01*
X1095238Y82711848D02*
X1238095Y82711848D01*
X1238095Y82711848D02*
X1333333Y82664229D01*
X1333333Y82664229D02*
X1380952Y82568991D01*
X1380952Y82568991D02*
X1380952Y82045181D01*
X1380952Y82568991D02*
X1428571Y82664229D01*
X1428571Y82664229D02*
X1523809Y82711848D01*
X1523809Y82711848D02*
X1666666Y82711848D01*
X1666666Y82711848D02*
X1761905Y82664229D01*
X1761905Y82664229D02*
X1809524Y82568991D01*
X1809524Y82568991D02*
X1809524Y82045181D01*
X2285714Y82045181D02*
X2285714Y82711848D01*
X2285714Y82616610D02*
X2333333Y82664229D01*
X2333333Y82664229D02*
X2428571Y82711848D01*
X2428571Y82711848D02*
X2571428Y82711848D01*
X2571428Y82711848D02*
X2666666Y82664229D01*
X2666666Y82664229D02*
X2714285Y82568991D01*
X2714285Y82568991D02*
X2714285Y82045181D01*
X2714285Y82568991D02*
X2761904Y82664229D01*
X2761904Y82664229D02*
X2857142Y82711848D01*
X2857142Y82711848D02*
X2999999Y82711848D01*
X2999999Y82711848D02*
X3095238Y82664229D01*
X3095238Y82664229D02*
X3142857Y82568991D01*
X3142857Y82568991D02*
X3142857Y82045181D01*
X-35000000Y75500000D02*
X-35000000Y83086420D01*
X35000000Y75500000D02*
X35000000Y83086420D01*
X-35000000Y82500000D02*
X-4005952Y82500000D01*
X4005952Y82500000D02*
X35000000Y82500000D01*
X-35000000Y82500000D02*
X-33873496Y83086421D01*
X-35000000Y82500000D02*
X-33873496Y81913579D01*
X35000000Y82500000D02*
X33873496Y81913579D01*
X35000000Y82500000D02*
X33873496Y83086421D01*
X-3000000Y85116610D02*
X-3095238Y85164229D01*
X-3095238Y85164229D02*
X-3142857Y85211848D01*
X-3142857Y85211848D02*
X-3190476Y85307086D01*
X-3190476Y85307086D02*
X-3190476Y85354705D01*
X-3190476Y85354705D02*
X-3142857Y85449943D01*
X-3142857Y85449943D02*
X-3095238Y85497562D01*
X-3095238Y85497562D02*
X-3000000Y85545181D01*
X-3000000Y85545181D02*
X-2809524Y85545181D01*
X-2809524Y85545181D02*
X-2714286Y85497562D01*
X-2714286Y85497562D02*
X-2666667Y85449943D01*
X-2666667Y85449943D02*
X-2619048Y85354705D01*
X-2619048Y85354705D02*
X-2619048Y85307086D01*
X-2619048Y85307086D02*
X-2666667Y85211848D01*
X-2666667Y85211848D02*
X-2714286Y85164229D01*
X-2714286Y85164229D02*
X-2809524Y85116610D01*
X-2809524Y85116610D02*
X-3000000Y85116610D01*
X-3000000Y85116610D02*
X-3095238Y85068991D01*
X-3095238Y85068991D02*
X-3142857Y85021372D01*
X-3142857Y85021372D02*
X-3190476Y84926134D01*
X-3190476Y84926134D02*
X-3190476Y84735658D01*
X-3190476Y84735658D02*
X-3142857Y84640420D01*
X-3142857Y84640420D02*
X-3095238Y84592800D01*
X-3095238Y84592800D02*
X-3000000Y84545181D01*
X-3000000Y84545181D02*
X-2809524Y84545181D01*
X-2809524Y84545181D02*
X-2714286Y84592800D01*
X-2714286Y84592800D02*
X-2666667Y84640420D01*
X-2666667Y84640420D02*
X-2619048Y84735658D01*
X-2619048Y84735658D02*
X-2619048Y84926134D01*
X-2619048Y84926134D02*
X-2666667Y85021372D01*
X-2666667Y85021372D02*
X-2714286Y85068991D01*
X-2714286Y85068991D02*
X-2809524Y85116610D01*
X-2000000Y85545181D02*
X-1904762Y85545181D01*
X-1904762Y85545181D02*
X-1809524Y85497562D01*
X-1809524Y85497562D02*
X-1761905Y85449943D01*
X-1761905Y85449943D02*
X-1714286Y85354705D01*
X-1714286Y85354705D02*
X-1666667Y85164229D01*
X-1666667Y85164229D02*
X-1666667Y84926134D01*
X-1666667Y84926134D02*
X-1714286Y84735658D01*
X-1714286Y84735658D02*
X-1761905Y84640420D01*
X-1761905Y84640420D02*
X-1809524Y84592800D01*
X-1809524Y84592800D02*
X-1904762Y84545181D01*
X-1904762Y84545181D02*
X-2000000Y84545181D01*
X-2000000Y84545181D02*
X-2095238Y84592800D01*
X-2095238Y84592800D02*
X-2142857Y84640420D01*
X-2142857Y84640420D02*
X-2190476Y84735658D01*
X-2190476Y84735658D02*
X-2238095Y84926134D01*
X-2238095Y84926134D02*
X-2238095Y85164229D01*
X-2238095Y85164229D02*
X-2190476Y85354705D01*
X-2190476Y85354705D02*
X-2142857Y85449943D01*
X-2142857Y85449943D02*
X-2095238Y85497562D01*
X-2095238Y85497562D02*
X-2000000Y85545181D01*
X-1238095Y84640420D02*
X-1190476Y84592800D01*
X-1190476Y84592800D02*
X-1238095Y84545181D01*
X-1238095Y84545181D02*
X-1285714Y84592800D01*
X-1285714Y84592800D02*
X-1238095Y84640420D01*
X-1238095Y84640420D02*
X-1238095Y84545181D01*
X-571429Y85545181D02*
X-476191Y85545181D01*
X-476191Y85545181D02*
X-380953Y85497562D01*
X-380953Y85497562D02*
X-333334Y85449943D01*
X-333334Y85449943D02*
X-285715Y85354705D01*
X-285715Y85354705D02*
X-238096Y85164229D01*
X-238096Y85164229D02*
X-238096Y84926134D01*
X-238096Y84926134D02*
X-285715Y84735658D01*
X-285715Y84735658D02*
X-333334Y84640420D01*
X-333334Y84640420D02*
X-380953Y84592800D01*
X-380953Y84592800D02*
X-476191Y84545181D01*
X-476191Y84545181D02*
X-571429Y84545181D01*
X-571429Y84545181D02*
X-666667Y84592800D01*
X-666667Y84592800D02*
X-714286Y84640420D01*
X-714286Y84640420D02*
X-761905Y84735658D01*
X-761905Y84735658D02*
X-809524Y84926134D01*
X-809524Y84926134D02*
X-809524Y85164229D01*
X-809524Y85164229D02*
X-761905Y85354705D01*
X-761905Y85354705D02*
X-714286Y85449943D01*
X-714286Y85449943D02*
X-666667Y85497562D01*
X-666667Y85497562D02*
X-571429Y85545181D01*
X952381Y84545181D02*
X952381Y85211848D01*
X952381Y85116610D02*
X1000000Y85164229D01*
X1000000Y85164229D02*
X1095238Y85211848D01*
X1095238Y85211848D02*
X1238095Y85211848D01*
X1238095Y85211848D02*
X1333333Y85164229D01*
X1333333Y85164229D02*
X1380952Y85068991D01*
X1380952Y85068991D02*
X1380952Y84545181D01*
X1380952Y85068991D02*
X1428571Y85164229D01*
X1428571Y85164229D02*
X1523809Y85211848D01*
X1523809Y85211848D02*
X1666666Y85211848D01*
X1666666Y85211848D02*
X1761905Y85164229D01*
X1761905Y85164229D02*
X1809524Y85068991D01*
X1809524Y85068991D02*
X1809524Y84545181D01*
X2285714Y84545181D02*
X2285714Y85211848D01*
X2285714Y85116610D02*
X2333333Y85164229D01*
X2333333Y85164229D02*
X2428571Y85211848D01*
X2428571Y85211848D02*
X2571428Y85211848D01*
X2571428Y85211848D02*
X2666666Y85164229D01*
X2666666Y85164229D02*
X2714285Y85068991D01*
X2714285Y85068991D02*
X2714285Y84545181D01*
X2714285Y85068991D02*
X2761904Y85164229D01*
X2761904Y85164229D02*
X2857142Y85211848D01*
X2857142Y85211848D02*
X2999999Y85211848D01*
X2999999Y85211848D02*
X3095238Y85164229D01*
X3095238Y85164229D02*
X3142857Y85068991D01*
X3142857Y85068991D02*
X3142857Y84545181D01*
X-40000000Y80000000D02*
X-40000000Y85586420D01*
X40000000Y80000000D02*
X40000000Y85586420D01*
X-40000000Y85000000D02*
X-4005952Y85000000D01*
X4005952Y85000000D02*
X40000000Y85000000D01*
X-40000000Y85000000D02*
X-38873496Y85586421D01*
X-40000000Y85000000D02*
X-38873496Y84413579D01*
X40000000Y85000000D02*
X38873496Y84413579D01*
X40000000Y85000000D02*
X38873496Y85586421D01*
%TO.C,H1*%
X38200000Y75000000D02*
G75*
G03*
X38200000Y75000000I-3200000J0D01*
G01*
%TO.C,H3*%
X38200000Y0D02*
G75*
G03*
X38200000Y0I-3200000J0D01*
G01*
%TO.C,H2*%
X-31800000Y75000000D02*
G75*
G03*
X-31800000Y75000000I-3200000J0D01*
G01*
%TO.C,H4*%
X-31800000Y0D02*
G75*
G03*
X-31800000Y0I-3200000J0D01*
G01*
%TD*%
M02*
