M48
; DRILL file {KiCad 7.0.9-7.0.9~ubuntu22.04.1} date Wed 20 Dec 2023 07:42:30 CET
; FORMAT={-:-/ absolute / metric / decimal}
; #@! TF.CreationDate,2023-12-20T07:42:30+01:00
; #@! TF.GenerationSoftware,Kicad,Pcbnew,7.0.9-7.0.9~ubuntu22.04.1
; #@! TF.FileFunction,Plated,1,2,PTH
FMAT,2
METRIC
; #@! TA.AperFunction,Plated,PTH,ViaDrill
T1C0.200
; #@! TA.AperFunction,Plated,PTH,ComponentDrill
T2C0.200
; #@! TA.AperFunction,Plated,PTH,ViaDrill
T3C0.250
; #@! TA.AperFunction,Plated,PTH,ViaDrill
T4C0.400
; #@! TA.AperFunction,Plated,PTH,ViaDrill
T5C0.500
; #@! TA.AperFunction,Plated,PTH,ComponentDrill
T6C0.500
; #@! TA.AperFunction,Plated,PTH,ViaDrill
T7C0.700
; #@! TA.AperFunction,Plated,PTH,ComponentDrill
T8C0.800
; #@! TA.AperFunction,Plated,PTH,ViaDrill
T9C1.000
; #@! TA.AperFunction,Plated,PTH,ComponentDrill
T10C1.000
; #@! TA.AperFunction,Plated,PTH,ComponentDrill
T11C1.100
; #@! TA.AperFunction,Plated,PTH,ComponentDrill
T12C1.190
; #@! TA.AperFunction,Plated,PTH,ComponentDrill
T13C3.200
; #@! TA.AperFunction,Plated,PTH,ComponentDrill
T14C4.500
%
G90
G05
T1
X-20.3Y47.883
X-19.1Y49.2
X-18.7Y55.0
X-18.6Y48.8
X-18.2Y48.2
X-18.1Y54.9
X-17.67Y41.037
X-17.5Y54.9
X-16.4Y58.65
X-16.1Y59.2
X-13.7Y58.6
X-13.5Y59.2
X-11.4Y73.6
X-11.4Y72.9
X-11.4Y72.0
X-11.4Y71.3
X-11.4Y70.5
X-11.4Y69.7
X-11.4Y69.0
X-11.4Y68.4
X-11.4Y67.8
X-10.9Y73.6
X-10.11Y75.0
X-10.11Y74.6
X-4.5Y75.4
X-4.1Y75.4
X-2.65Y77.5
X-2.65Y77.1
X-2.65Y76.7
T2
X-9.205Y71.125
X-9.205Y69.825
X-8.205Y71.125
X-8.205Y69.825
X-7.205Y71.125
X-7.205Y69.825
T3
X-26.0Y11.25
X-25.9Y13.8
X-25.7Y38.8
X-25.599Y22.635
X-25.58Y37.836
X-25.3Y22.0
X-16.7Y24.0
X-16.275Y21.1
X-16.171Y33.8
X-15.863Y55.371
X-15.448Y33.636
X-14.83Y35.7
X-14.1Y34.2
X-13.5Y35.1
X-12.9Y34.0
X-12.001Y7.199
X-11.976Y6.324
X-11.074Y26.174
X-10.8Y4.6
X-10.6Y33.5
X-10.2Y27.2
X-10.066Y3.953
X-10.065Y36.914
X3.821Y37.346
X4.1Y31.1
X4.2Y13.1
X4.4Y20.8
X4.4Y18.3
X4.4Y10.6
X4.4Y8.1
X4.407Y38.351
X4.5Y33.5
X4.5Y4.9
X4.75Y1.601
X4.806Y-2.068
X7.2Y63.8
X9.63Y65.2
X11.1Y43.6
X11.6Y45.6
X11.6Y13.1
X12.1Y7.0
X12.3Y13.8
X12.4Y35.2
X12.764Y6.779
X13.1Y37.0
X13.2Y31.9
X13.5Y19.8
X13.7Y39.19
X13.8Y33.978
X14.2Y23.9
X14.3Y39.8
X14.3Y19.8
X14.7Y23.4
X14.906Y40.4
X15.506Y41.0
T4
X-31.7Y16.3
X-30.0Y57.4
X-27.3Y66.1
X-19.4Y56.2
X-19.0Y32.0
X-19.0Y29.2
X-19.0Y15.3
X-18.323Y43.616
X-16.966Y6.966
X-16.5Y48.8
X-16.2Y61.3
X-15.366Y57.95
X-14.8Y60.5
X-14.4Y48.8
X-11.6Y60.0
X-7.442Y4.442
X-6.0Y15.9
X-4.1Y12.1
X-3.68Y15.58
X-2.6Y23.368
X-0.9Y6.5
X-0.9Y5.6
X-0.4Y12.0
X4.017Y-2.385
X4.1Y6.5
X4.1Y3.3
X4.1Y-0.4
X10.2Y48.9
X10.8Y60.2
X16.966Y5.8
X18.5Y36.8
X18.5Y29.2
T5
X-28.7Y64.2
X-28.7Y16.3
X-14.5Y16.6
X-11.9Y4.3
X-10.7Y-1.0
X-6.9Y22.6
X-4.8Y64.8
X-4.0Y41.5
X-2.8Y-3.6
X1.623Y38.95
X2.45Y59.65
X5.77Y63.783
X7.25Y60.55
X16.767Y48.833
X16.966Y15.766
X18.5Y43.7
X18.6Y31.5
X31.644Y16.256
X32.0Y31.5
T6
X-37.4Y75.0
X-37.4Y0.0
X-36.697Y76.697
X-36.697Y73.303
X-36.697Y1.697
X-36.697Y-1.697
X-35.0Y77.4
X-35.0Y72.6
X-35.0Y2.4
X-35.0Y-2.4
X-33.303Y76.697
X-33.303Y73.303
X-33.303Y1.697
X-33.303Y-1.697
X-32.6Y75.0
X-32.6Y0.0
X32.6Y75.0
X32.6Y0.0
X33.303Y76.697
X33.303Y73.303
X33.303Y1.697
X33.303Y-1.697
X35.0Y77.4
X35.0Y72.6
X35.0Y2.4
X35.0Y-2.4
X36.697Y76.697
X36.697Y73.303
X36.697Y1.697
X36.697Y-1.697
X37.4Y75.0
X37.4Y0.0
T7
X-12.6Y75.4
X-5.3Y75.4
T8
X-25.003Y63.8
X-20.003Y63.8
T9
X-19.0Y39.1
X-19.0Y37.5
X-9.9Y61.3
X-9.9Y58.8
X-5.55Y48.95
X-3.3Y48.95
T10
X-8.89Y46.175
X-8.89Y43.635
X-8.89Y41.095
X-8.89Y38.555
X-8.89Y36.015
X-8.89Y33.475
X-8.89Y30.935
X-8.89Y28.395
X-8.89Y25.855
X-8.89Y23.315
X-8.89Y20.775
X-8.89Y18.235
X-8.89Y15.695
X-8.89Y13.155
X-8.89Y10.615
X-8.89Y5.535
X-8.89Y2.995
X-8.89Y0.455
X-8.89Y-2.085
X-6.35Y8.075
X-6.35Y5.535
X-3.81Y46.175
X-1.27Y46.175
X1.27Y46.175
X3.81Y46.175
X8.89Y46.175
X8.89Y43.635
X8.89Y41.095
X8.89Y38.555
X8.89Y36.015
X8.89Y33.475
X8.89Y30.935
X8.89Y28.395
X8.89Y25.855
X8.89Y23.315
X8.89Y20.775
X8.89Y18.235
X8.89Y15.695
X8.89Y13.155
X8.89Y10.615
X8.89Y8.075
X8.89Y5.535
X8.89Y0.455
X8.89Y-2.085
T11
X-8.89Y8.075
X8.89Y2.995
T12
X-29.74Y62.05
X-29.74Y59.51
X-29.74Y54.43
X-29.74Y51.89
X-29.74Y46.81
X-29.74Y44.27
X-29.74Y41.73
X-29.74Y39.19
X-29.74Y36.65
X-29.74Y34.11
X-29.74Y29.03
X-29.74Y26.49
X-29.74Y23.95
X-29.74Y21.41
X-29.74Y18.87
X-29.74Y13.79
X-29.74Y11.25
X-29.74Y8.71
X-29.74Y6.17
X7.09Y70.178
X9.63Y70.178
X12.17Y70.178
X14.71Y70.178
X19.282Y70.198
X21.822Y70.198
X24.362Y70.198
X26.902Y70.198
X29.95Y62.05
X29.95Y59.51
X29.95Y54.43
X29.95Y51.89
X29.95Y46.81
X29.95Y44.27
X29.95Y41.73
X29.95Y39.19
X29.95Y36.65
X29.95Y34.11
X29.95Y29.03
X29.95Y26.49
X29.95Y23.95
X29.95Y21.41
X29.95Y18.87
X29.97Y13.79
X29.97Y11.25
X29.97Y8.71
X29.97Y6.17
T13
X-35.0Y75.0
X-35.0Y0.0
X35.0Y75.0
X35.0Y0.0
T14
X-24.166Y-0.254
X-24.0Y73.0
X-16.966Y-0.254
X-16.8Y73.0
X16.966Y-0.254
X24.166Y-0.254
T0
M30
