%TF.GenerationSoftware,KiCad,Pcbnew,7.0.9-7.0.9~ubuntu22.04.1*%
%TF.CreationDate,2023-12-20T07:42:30+01:00*%
%TF.ProjectId,RobotMotorController,526f626f-744d-46f7-946f-72436f6e7472,rev?*%
%TF.SameCoordinates,Original*%
%TF.FileFunction,Paste,Top*%
%TF.FilePolarity,Positive*%
%FSLAX46Y46*%
G04 Gerber Fmt 4.6, Leading zero omitted, Abs format (unit mm)*
G04 Created by KiCad (PCBNEW 7.0.9-7.0.9~ubuntu22.04.1) date 2023-12-20 07:42:30*
%MOMM*%
%LPD*%
G01*
G04 APERTURE LIST*
G04 Aperture macros list*
%AMRoundRect*
0 Rectangle with rounded corners*
0 $1 Rounding radius*
0 $2 $3 $4 $5 $6 $7 $8 $9 X,Y pos of 4 corners*
0 Add a 4 corners polygon primitive as box body*
4,1,4,$2,$3,$4,$5,$6,$7,$8,$9,$2,$3,0*
0 Add four circle primitives for the rounded corners*
1,1,$1+$1,$2,$3*
1,1,$1+$1,$4,$5*
1,1,$1+$1,$6,$7*
1,1,$1+$1,$8,$9*
0 Add four rect primitives between the rounded corners*
20,1,$1+$1,$2,$3,$4,$5,0*
20,1,$1+$1,$4,$5,$6,$7,0*
20,1,$1+$1,$6,$7,$8,$9,0*
20,1,$1+$1,$8,$9,$2,$3,0*%
G04 Aperture macros list end*
%ADD10RoundRect,0.200000X-0.200000X-0.275000X0.200000X-0.275000X0.200000X0.275000X-0.200000X0.275000X0*%
%ADD11RoundRect,0.135000X0.135000X0.185000X-0.135000X0.185000X-0.135000X-0.185000X0.135000X-0.185000X0*%
%ADD12RoundRect,0.135000X-0.135000X-0.185000X0.135000X-0.185000X0.135000X0.185000X-0.135000X0.185000X0*%
%ADD13RoundRect,0.218750X0.218750X0.256250X-0.218750X0.256250X-0.218750X-0.256250X0.218750X-0.256250X0*%
%ADD14RoundRect,0.249999X1.425001X-0.450001X1.425001X0.450001X-1.425001X0.450001X-1.425001X-0.450001X0*%
%ADD15R,3.500000X2.350000*%
%ADD16RoundRect,0.250000X1.000000X0.650000X-1.000000X0.650000X-1.000000X-0.650000X1.000000X-0.650000X0*%
%ADD17RoundRect,0.200000X-0.275000X0.200000X-0.275000X-0.200000X0.275000X-0.200000X0.275000X0.200000X0*%
%ADD18R,1.500000X2.000000*%
%ADD19R,3.800000X2.000000*%
%ADD20RoundRect,0.140000X0.170000X-0.140000X0.170000X0.140000X-0.170000X0.140000X-0.170000X-0.140000X0*%
%ADD21RoundRect,0.140000X0.140000X0.170000X-0.140000X0.170000X-0.140000X-0.170000X0.140000X-0.170000X0*%
%ADD22RoundRect,0.225000X0.250000X-0.225000X0.250000X0.225000X-0.250000X0.225000X-0.250000X-0.225000X0*%
%ADD23RoundRect,0.140000X-0.140000X-0.170000X0.140000X-0.170000X0.140000X0.170000X-0.140000X0.170000X0*%
%ADD24RoundRect,0.075000X-0.075000X0.650000X-0.075000X-0.650000X0.075000X-0.650000X0.075000X0.650000X0*%
%ADD25RoundRect,0.240000X-0.385000X0.240000X-0.385000X-0.240000X0.385000X-0.240000X0.385000X0.240000X0*%
%ADD26RoundRect,0.150000X-0.150000X0.825000X-0.150000X-0.825000X0.150000X-0.825000X0.150000X0.825000X0*%
%ADD27RoundRect,0.200000X0.275000X-0.200000X0.275000X0.200000X-0.275000X0.200000X-0.275000X-0.200000X0*%
%ADD28RoundRect,0.075000X0.075000X-0.650000X0.075000X0.650000X-0.075000X0.650000X-0.075000X-0.650000X0*%
%ADD29RoundRect,0.250000X-0.250000X-0.475000X0.250000X-0.475000X0.250000X0.475000X-0.250000X0.475000X0*%
%ADD30RoundRect,0.140000X-0.170000X0.140000X-0.170000X-0.140000X0.170000X-0.140000X0.170000X0.140000X0*%
%ADD31RoundRect,0.160000X0.160000X-0.197500X0.160000X0.197500X-0.160000X0.197500X-0.160000X-0.197500X0*%
%ADD32RoundRect,0.249999X0.450001X1.425001X-0.450001X1.425001X-0.450001X-1.425001X0.450001X-1.425001X0*%
%ADD33RoundRect,0.135000X0.185000X-0.135000X0.185000X0.135000X-0.185000X0.135000X-0.185000X-0.135000X0*%
%ADD34RoundRect,0.250000X0.475000X-0.250000X0.475000X0.250000X-0.475000X0.250000X-0.475000X-0.250000X0*%
%ADD35RoundRect,0.250000X1.500000X0.550000X-1.500000X0.550000X-1.500000X-0.550000X1.500000X-0.550000X0*%
%ADD36RoundRect,0.250000X-1.100000X0.325000X-1.100000X-0.325000X1.100000X-0.325000X1.100000X0.325000X0*%
%ADD37RoundRect,0.225000X0.225000X0.250000X-0.225000X0.250000X-0.225000X-0.250000X0.225000X-0.250000X0*%
%ADD38RoundRect,0.250000X-1.000000X-0.650000X1.000000X-0.650000X1.000000X0.650000X-1.000000X0.650000X0*%
%ADD39RoundRect,0.135000X-0.185000X0.135000X-0.185000X-0.135000X0.185000X-0.135000X0.185000X0.135000X0*%
G04 APERTURE END LIST*
D10*
%TO.C,R12*%
X5323000Y20775000D03*
X6973000Y20775000D03*
%TD*%
%TO.C,R1*%
X5275000Y4900000D03*
X6925000Y4900000D03*
%TD*%
D11*
%TO.C,R37*%
X-19758000Y43309000D03*
X-20778000Y43309000D03*
%TD*%
D12*
%TO.C,R44*%
X-10536000Y54900000D03*
X-9516000Y54900000D03*
%TD*%
D13*
%TO.C,D6*%
X-4187500Y20775000D03*
X-5762500Y20775000D03*
%TD*%
D14*
%TO.C,R38*%
X-23300000Y41750000D03*
X-23300000Y47850000D03*
%TD*%
D10*
%TO.C,R13*%
X5323000Y33475000D03*
X6973000Y33475000D03*
%TD*%
%TO.C,R11*%
X5323000Y18235000D03*
X6973000Y18235000D03*
%TD*%
%TO.C,R9*%
X5323000Y38555000D03*
X6973000Y38555000D03*
%TD*%
D15*
%TO.C,L1*%
X-400000Y71225000D03*
X-400000Y65175000D03*
%TD*%
D16*
%TO.C,D16*%
X1300000Y75400000D03*
X-2700000Y75400000D03*
%TD*%
D10*
%TO.C,R4*%
X5275000Y-2032000D03*
X6925000Y-2032000D03*
%TD*%
%TO.C,R10*%
X5323000Y36015000D03*
X6973000Y36015000D03*
%TD*%
D17*
%TO.C,R24*%
X-14100000Y29525000D03*
X-14100000Y27875000D03*
%TD*%
D18*
%TO.C,U8*%
X2300000Y36550000D03*
X0Y36550000D03*
D19*
X0Y30250000D03*
D18*
X-2300000Y36550000D03*
%TD*%
D20*
%TO.C,C9*%
X-15400000Y56320000D03*
X-15400000Y57280000D03*
%TD*%
D17*
%TO.C,R32*%
X-14100000Y21125000D03*
X-14100000Y19475000D03*
%TD*%
D10*
%TO.C,R15*%
X5275000Y-400000D03*
X6925000Y-400000D03*
%TD*%
D14*
%TO.C,R25*%
X-23400000Y52550000D03*
X-23400000Y58650000D03*
%TD*%
D21*
%TO.C,C5*%
X-11578000Y54900000D03*
X-12538000Y54900000D03*
%TD*%
D10*
%TO.C,R2*%
X5275000Y8128000D03*
X6925000Y8128000D03*
%TD*%
%TO.C,R48*%
X-8125000Y65600000D03*
X-6475000Y65600000D03*
%TD*%
D17*
%TO.C,R31*%
X-12400000Y21125000D03*
X-12400000Y19475000D03*
%TD*%
D22*
%TO.C,C19*%
X-2300000Y39125000D03*
X-2300000Y40675000D03*
%TD*%
D10*
%TO.C,R20*%
X5275000Y6500000D03*
X6925000Y6500000D03*
%TD*%
D21*
%TO.C,C2*%
X-29976000Y31496000D03*
X-30936000Y31496000D03*
%TD*%
D11*
%TO.C,R42*%
X-13580000Y54900000D03*
X-14600000Y54900000D03*
%TD*%
D23*
%TO.C,C10*%
X-5455000Y22680000D03*
X-4495000Y22680000D03*
%TD*%
D24*
%TO.C,U4*%
X-12000000Y61200000D03*
X-12500000Y61200000D03*
X-13000000Y61200000D03*
X-13500000Y61200000D03*
X-14000000Y61200000D03*
X-14000000Y56800000D03*
X-13500000Y56800000D03*
X-13000000Y56800000D03*
X-12500000Y56800000D03*
X-12000000Y56800000D03*
%TD*%
D25*
%TO.C,U10*%
X-7455000Y71045000D03*
X-8955000Y71045000D03*
X-7455000Y69905000D03*
X-8955000Y69905000D03*
D26*
X-6300000Y72950000D03*
X-7570000Y72950000D03*
X-8840000Y72950000D03*
X-10110000Y72950000D03*
X-10110000Y68000000D03*
X-8840000Y68000000D03*
X-7570000Y68000000D03*
X-6300000Y68000000D03*
%TD*%
D27*
%TO.C,R43*%
X-6640000Y75700302D03*
X-6640000Y77350302D03*
%TD*%
D28*
%TO.C,U2*%
X-18871000Y56769000D03*
X-18371000Y56769000D03*
X-17871000Y56769000D03*
X-17371000Y56769000D03*
X-16871000Y56769000D03*
X-16871000Y61169000D03*
X-17371000Y61169000D03*
X-17871000Y61169000D03*
X-18371000Y61169000D03*
X-18871000Y61169000D03*
%TD*%
D29*
%TO.C,C26*%
X-4550000Y78400000D03*
X-2650000Y78400000D03*
%TD*%
D30*
%TO.C,C3*%
X-15400000Y61780000D03*
X-15400000Y60820000D03*
%TD*%
D17*
%TO.C,R23*%
X-12400000Y29525000D03*
X-12400000Y27875000D03*
%TD*%
D11*
%TO.C,R6*%
X-5990000Y33475000D03*
X-7010000Y33475000D03*
%TD*%
D20*
%TO.C,C6*%
X-19760000Y44381000D03*
X-19760000Y45341000D03*
%TD*%
D10*
%TO.C,R8*%
X5323000Y13155000D03*
X6973000Y13155000D03*
%TD*%
%TO.C,R21*%
X-5800000Y24585000D03*
X-4150000Y24585000D03*
%TD*%
D23*
%TO.C,C15*%
X30052000Y16256000D03*
X31012000Y16256000D03*
%TD*%
D20*
%TO.C,C4*%
X-20800000Y54790000D03*
X-20800000Y55750000D03*
%TD*%
D13*
%TO.C,D9*%
X-1012500Y10615000D03*
X-2587500Y10615000D03*
%TD*%
D31*
%TO.C,R45*%
X-4800000Y66502500D03*
X-4800000Y67697500D03*
%TD*%
D32*
%TO.C,R50*%
X-9550000Y52200000D03*
X-15650000Y52200000D03*
%TD*%
D10*
%TO.C,R14*%
X5323000Y30935000D03*
X6973000Y30935000D03*
%TD*%
D23*
%TO.C,C18*%
X-15980000Y48800000D03*
X-15020000Y48800000D03*
%TD*%
D33*
%TO.C,R17*%
X-20800000Y56764000D03*
X-20800000Y57784000D03*
%TD*%
D10*
%TO.C,R18*%
X5275000Y3300000D03*
X6925000Y3300000D03*
%TD*%
D13*
%TO.C,D7*%
X-1012500Y18235000D03*
X-2587500Y18235000D03*
%TD*%
D27*
%TO.C,R49*%
X-9900000Y64075000D03*
X-9900000Y65725000D03*
%TD*%
D34*
%TO.C,C29*%
X0Y39250000D03*
X0Y41150000D03*
%TD*%
D23*
%TO.C,C12*%
X-5455000Y15060000D03*
X-4495000Y15060000D03*
%TD*%
D10*
%TO.C,R7*%
X5323000Y10615000D03*
X6973000Y10615000D03*
%TD*%
D35*
%TO.C,C42*%
X-1700000Y59000000D03*
X-7100000Y59000000D03*
%TD*%
D24*
%TO.C,U5*%
X-16220000Y47033000D03*
X-16720000Y47033000D03*
X-17220000Y47033000D03*
X-17720000Y47033000D03*
X-18220000Y47033000D03*
X-18220000Y42633000D03*
X-17720000Y42633000D03*
X-17220000Y42633000D03*
X-16720000Y42633000D03*
X-16220000Y42633000D03*
%TD*%
D23*
%TO.C,C11*%
X-2280000Y20140000D03*
X-1320000Y20140000D03*
%TD*%
D36*
%TO.C,C24*%
X-10040000Y78700302D03*
X-10040000Y75750302D03*
%TD*%
D23*
%TO.C,C1*%
X30052000Y31496000D03*
X31012000Y31496000D03*
%TD*%
D11*
%TO.C,R36*%
X-19756000Y46357000D03*
X-20776000Y46357000D03*
%TD*%
D30*
%TO.C,C33*%
X-4800000Y70280000D03*
X-4800000Y69320000D03*
%TD*%
D37*
%TO.C,C36*%
X-6525000Y63900000D03*
X-8075000Y63900000D03*
%TD*%
D10*
%TO.C,R30*%
X-2625000Y14425000D03*
X-975000Y14425000D03*
%TD*%
D13*
%TO.C,D8*%
X-4187500Y13155000D03*
X-5762500Y13155000D03*
%TD*%
D10*
%TO.C,R5*%
X5275000Y1200000D03*
X6925000Y1200000D03*
%TD*%
D21*
%TO.C,C14*%
X-29948000Y16256000D03*
X-30908000Y16256000D03*
%TD*%
D10*
%TO.C,R29*%
X-5800000Y16965000D03*
X-4150000Y16965000D03*
%TD*%
%TO.C,R22*%
X-2625000Y22045000D03*
X-975000Y22045000D03*
%TD*%
D38*
%TO.C,D15*%
X-16700000Y64100000D03*
X-12700000Y64100000D03*
%TD*%
D23*
%TO.C,C13*%
X-2280000Y12520000D03*
X-1320000Y12520000D03*
%TD*%
D11*
%TO.C,R16*%
X-5980000Y30935000D03*
X-7000000Y30935000D03*
%TD*%
D39*
%TO.C,R19*%
X-20800000Y53720000D03*
X-20800000Y52700000D03*
%TD*%
D10*
%TO.C,R3*%
X5275000Y-3600000D03*
X6925000Y-3600000D03*
%TD*%
M02*
