M48
; DRILL file {KiCad 7.0.10-7.0.10~ubuntu22.04.1} date Mon 22 Jan 2024 07:00:45 CET
; FORMAT={-:-/ absolute / inch / decimal}
; #@! TF.CreationDate,2024-01-22T07:00:45+01:00
; #@! TF.GenerationSoftware,Kicad,Pcbnew,7.0.10-7.0.10~ubuntu22.04.1
; #@! TF.FileFunction,Plated,1,2,PTH
FMAT,2
INCH
; #@! TA.AperFunction,Plated,PTH,ViaDrill
T1C0.0079
; #@! TA.AperFunction,Plated,PTH,ComponentDrill
T2C0.0079
; #@! TA.AperFunction,Plated,PTH,ViaDrill
T3C0.0098
; #@! TA.AperFunction,Plated,PTH,ViaDrill
T4C0.0157
; #@! TA.AperFunction,Plated,PTH,ViaDrill
T5C0.0197
; #@! TA.AperFunction,Plated,PTH,ComponentDrill
T6C0.0197
; #@! TA.AperFunction,Plated,PTH,ViaDrill
T7C0.0276
; #@! TA.AperFunction,Plated,PTH,ComponentDrill
T8C0.0315
; #@! TA.AperFunction,Plated,PTH,ViaDrill
T9C0.0394
; #@! TA.AperFunction,Plated,PTH,ComponentDrill
T10C0.0394
; #@! TA.AperFunction,Plated,PTH,ComponentDrill
T11C0.0433
; #@! TA.AperFunction,Plated,PTH,ComponentDrill
T12C0.0469
; #@! TA.AperFunction,Plated,PTH,ComponentDrill
T13C0.1260
; #@! TA.AperFunction,Plated,PTH,ComponentDrill
T14C0.1772
%
G90
G05
T1
X-0.7992Y1.8852
X-0.752Y1.937
X-0.7362Y2.1654
X-0.7323Y1.9213
X-0.7165Y1.8976
X-0.7126Y2.1614
X-0.6957Y1.6156
X-0.689Y2.1614
X-0.6457Y2.3091
X-0.6339Y2.3307
X-0.5394Y2.3071
X-0.5315Y2.3307
X-0.4488Y2.8976
X-0.4488Y2.8701
X-0.4488Y2.8346
X-0.4488Y2.8071
X-0.4488Y2.7756
X-0.4488Y2.7441
X-0.4488Y2.7165
X-0.4488Y2.6929
X-0.4488Y2.6693
X-0.4291Y2.8976
X-0.398Y2.9528
X-0.398Y2.937
X-0.1772Y2.9685
X-0.1614Y2.9685
X-0.1043Y3.0512
X-0.1043Y3.0354
X-0.1043Y3.0197
T2
X-0.3624Y2.8002
X-0.3624Y2.749
X-0.323Y2.8002
X-0.323Y2.749
X-0.2837Y2.8002
X-0.2837Y2.749
T3
X-1.0236Y0.4429
X-1.0197Y0.5433
X-1.0118Y1.5276
X-1.0079Y0.8911
X-1.0071Y1.4896
X-0.9961Y0.8661
X-0.6575Y0.9449
X-0.6407Y0.8307
X-0.6366Y1.3307
X-0.6245Y2.18
X-0.6082Y1.3242
X-0.5838Y1.4055
X-0.5551Y1.3465
X-0.5315Y1.3819
X-0.5079Y1.3386
X-0.4725Y0.2834
X-0.4715Y0.249
X-0.436Y1.0305
X-0.4252Y0.1811
X-0.4173Y1.3189
X-0.4016Y1.0709
X-0.3963Y0.1556
X-0.3963Y1.4533
X0.1504Y1.4703
X0.1614Y1.2244
X0.1654Y0.5157
X0.1732Y0.8189
X0.1732Y0.7205
X0.1732Y0.4173
X0.1732Y0.3189
X0.1735Y1.5099
X0.1772Y1.3189
X0.1772Y0.1929
X0.187Y0.063
X0.1892Y-0.0814
X0.2835Y2.5118
X0.3791Y2.5669
X0.437Y1.7165
X0.4567Y1.7953
X0.4567Y0.5157
X0.4764Y0.2756
X0.4843Y0.5433
X0.4882Y1.3858
X0.5025Y0.2669
X0.5157Y1.4567
X0.5197Y1.2559
X0.5315Y0.7795
X0.5394Y1.5429
X0.5433Y1.3377
X0.5591Y0.9409
X0.563Y1.5669
X0.563Y0.7795
X0.5787Y0.9213
X0.5868Y1.5906
X0.6105Y1.6142
T4
X-1.248Y0.6417
X-1.1811Y2.2598
X-1.0748Y2.6024
X-0.7638Y2.2126
X-0.748Y1.2598
X-0.748Y1.1496
X-0.748Y0.6024
X-0.7214Y1.7172
X-0.668Y0.2743
X-0.6496Y1.9213
X-0.6378Y2.4134
X-0.605Y2.2815
X-0.5827Y2.3819
X-0.5669Y1.9213
X-0.4567Y2.3622
X-0.293Y0.1749
X-0.2362Y0.626
X-0.1614Y0.4764
X-0.1449Y0.6134
X-0.1024Y0.92
X-0.0354Y0.2559
X-0.0354Y0.2205
X-0.0157Y0.4724
X0.1581Y-0.0939
X0.1614Y0.2559
X0.1614Y0.1299
X0.1614Y-0.0157
X0.4016Y1.9252
X0.4252Y2.3701
X0.668Y0.2283
X0.7283Y1.4488
X0.7283Y1.1496
T5
X-1.1299Y2.5276
X-1.1299Y0.6417
X-0.5709Y0.6535
X-0.4685Y0.1693
X-0.4213Y-0.0394
X-0.2717Y0.8898
X-0.189Y2.5512
X-0.1575Y1.6339
X-0.1102Y-0.1417
X0.0639Y1.5335
X0.0965Y2.3484
X0.2272Y2.5111
X0.2854Y2.3839
X0.6601Y1.9226
X0.668Y0.6207
X0.7283Y1.7205
X0.7323Y1.2402
X1.2458Y0.64
X1.2598Y1.2402
T6
X-1.4724Y2.9528
X-1.4724Y0.0
X-1.4448Y3.0196
X-1.4448Y2.8859
X-1.4448Y0.0668
X-1.4448Y-0.0668
X-1.378Y3.0472
X-1.378Y2.8583
X-1.378Y0.0945
X-1.378Y-0.0945
X-1.3111Y3.0196
X-1.3111Y2.8859
X-1.3111Y0.0668
X-1.3111Y-0.0668
X-1.2835Y2.9528
X-1.2835Y0.0
X1.2835Y2.9528
X1.2835Y0.0
X1.3111Y3.0196
X1.3111Y2.8859
X1.3111Y0.0668
X1.3111Y-0.0668
X1.378Y3.0472
X1.378Y2.8583
X1.378Y0.0945
X1.378Y-0.0945
X1.4448Y3.0196
X1.4448Y2.8859
X1.4448Y0.0668
X1.4448Y-0.0668
X1.4724Y2.9528
X1.4724Y0.0
T7
X-0.4961Y2.9685
X-0.2087Y2.9685
T8
X-0.9844Y2.5118
X-0.7875Y2.5118
T9
X-0.748Y1.5394
X-0.748Y1.4764
X-0.3898Y2.4134
X-0.3898Y2.315
X-0.2185Y1.9272
X-0.1299Y1.9272
T10
X-0.35Y1.8179
X-0.35Y1.7179
X-0.35Y1.6179
X-0.35Y1.5179
X-0.35Y1.4179
X-0.35Y1.3179
X-0.35Y1.2179
X-0.35Y1.1179
X-0.35Y1.0179
X-0.35Y0.9179
X-0.35Y0.8179
X-0.35Y0.7179
X-0.35Y0.6179
X-0.35Y0.5179
X-0.35Y0.4179
X-0.35Y0.2179
X-0.35Y0.1179
X-0.35Y0.0179
X-0.35Y-0.0821
X-0.25Y0.3179
X-0.25Y0.2179
X-0.15Y1.8179
X-0.05Y1.8179
X0.05Y1.8179
X0.15Y1.8179
X0.35Y1.8179
X0.35Y1.7179
X0.35Y1.6179
X0.35Y1.5179
X0.35Y1.4179
X0.35Y1.3179
X0.35Y1.2179
X0.35Y1.1179
X0.35Y1.0179
X0.35Y0.9179
X0.35Y0.8179
X0.35Y0.7179
X0.35Y0.6179
X0.35Y0.5179
X0.35Y0.4179
X0.35Y0.3179
X0.35Y0.2179
X0.35Y0.0179
X0.35Y-0.0821
T11
X-0.35Y0.3179
X0.35Y0.1179
T12
X-1.1709Y2.4429
X-1.1709Y2.3429
X-1.1709Y2.1429
X-1.1709Y2.0429
X-1.1709Y1.8429
X-1.1709Y1.7429
X-1.1709Y1.6429
X-1.1709Y1.5429
X-1.1709Y1.4429
X-1.1709Y1.3429
X-1.1709Y1.1429
X-1.1709Y1.0429
X-1.1709Y0.9429
X-1.1709Y0.8429
X-1.1709Y0.7429
X-1.1709Y0.5429
X-1.1709Y0.4429
X-1.1709Y0.3429
X-1.1709Y0.2429
X0.2791Y2.7629
X0.3791Y2.7629
X0.4791Y2.7629
X0.5791Y2.7629
X0.7591Y2.7637
X0.8591Y2.7637
X0.9591Y2.7637
X1.0591Y2.7637
X1.1791Y2.4429
X1.1791Y2.3429
X1.1791Y2.1429
X1.1791Y2.0429
X1.1791Y1.8429
X1.1791Y1.7429
X1.1791Y1.6429
X1.1791Y1.5429
X1.1791Y1.4429
X1.1791Y1.3429
X1.1791Y1.1429
X1.1791Y1.0429
X1.1791Y0.9429
X1.1791Y0.8429
X1.1791Y0.7429
X1.1799Y0.5429
X1.1799Y0.4429
X1.1799Y0.3429
X1.1799Y0.2429
T13
X-1.378Y2.9528
X-1.378Y0.0
X1.378Y2.9528
X1.378Y0.0
T14
X-0.9514Y-0.01
X-0.9449Y2.874
X-0.668Y-0.01
X-0.6614Y2.874
X0.668Y-0.01
X0.9514Y-0.01
M30
