%TF.GenerationSoftware,KiCad,Pcbnew,7.0.9-7.0.9~ubuntu22.04.1*%
%TF.CreationDate,2023-12-20T07:42:30+01:00*%
%TF.ProjectId,RobotMotorController,526f626f-744d-46f7-946f-72436f6e7472,rev?*%
%TF.SameCoordinates,Original*%
%TF.FileFunction,Soldermask,Top*%
%TF.FilePolarity,Negative*%
%FSLAX46Y46*%
G04 Gerber Fmt 4.6, Leading zero omitted, Abs format (unit mm)*
G04 Created by KiCad (PCBNEW 7.0.9-7.0.9~ubuntu22.04.1) date 2023-12-20 07:42:30*
%MOMM*%
%LPD*%
G01*
G04 APERTURE LIST*
G04 Aperture macros list*
%AMRoundRect*
0 Rectangle with rounded corners*
0 $1 Rounding radius*
0 $2 $3 $4 $5 $6 $7 $8 $9 X,Y pos of 4 corners*
0 Add a 4 corners polygon primitive as box body*
4,1,4,$2,$3,$4,$5,$6,$7,$8,$9,$2,$3,0*
0 Add four circle primitives for the rounded corners*
1,1,$1+$1,$2,$3*
1,1,$1+$1,$4,$5*
1,1,$1+$1,$6,$7*
1,1,$1+$1,$8,$9*
0 Add four rect primitives between the rounded corners*
20,1,$1+$1,$2,$3,$4,$5,0*
20,1,$1+$1,$4,$5,$6,$7,0*
20,1,$1+$1,$6,$7,$8,$9,0*
20,1,$1+$1,$8,$9,$2,$3,0*%
%AMFreePoly0*
4,1,38,0.558779,0.830902,0.595106,0.780902,0.600000,0.750000,0.600000,-0.750000,0.580902,-0.808779,0.530902,-0.845106,0.500000,-0.850000,0.000000,-0.850000,-0.015663,-0.844911,-0.071157,-0.844911,-0.099330,-0.840860,-0.235881,-0.800765,-0.261772,-0.788941,-0.381494,-0.712000,-0.403005,-0.693361,-0.496202,-0.585806,-0.511590,-0.561861,-0.570709,-0.432407,-0.578728,-0.405098,-0.598982,-0.264232,
-0.600000,-0.250000,-0.600000,0.250000,-0.598982,0.264232,-0.578728,0.405098,-0.570709,0.432407,-0.511590,0.561861,-0.496202,0.585806,-0.403005,0.693361,-0.381494,0.712000,-0.261772,0.788941,-0.235881,0.800765,-0.099330,0.840860,-0.071157,0.844911,-0.031170,0.844911,-0.030902,0.845106,0.000000,0.850000,0.500000,0.850000,0.558779,0.830902,0.558779,0.830902,$1*%
%AMFreePoly1*
4,1,38,0.015663,0.844911,0.071157,0.844911,0.099330,0.840860,0.235881,0.800765,0.261772,0.788941,0.381494,0.712000,0.403005,0.693361,0.496202,0.585806,0.511590,0.561861,0.570709,0.432407,0.578728,0.405098,0.598982,0.264232,0.600000,0.250000,0.600000,-0.250000,0.598982,-0.264232,0.578728,-0.405098,0.570709,-0.432407,0.511590,-0.561861,0.496202,-0.585806,0.403005,-0.693361,
0.381494,-0.712000,0.261772,-0.788941,0.235881,-0.800765,0.099330,-0.840860,0.071157,-0.844911,0.031170,-0.844911,0.030902,-0.845106,0.000000,-0.850000,-0.500000,-0.850000,-0.558779,-0.830902,-0.595106,-0.780902,-0.600000,-0.750000,-0.600000,0.750000,-0.580902,0.808779,-0.530902,0.845106,-0.500000,0.850000,0.000000,0.850000,0.015663,0.844911,0.015663,0.844911,$1*%
G04 Aperture macros list end*
%ADD10RoundRect,0.300000X-0.200000X-0.275000X0.200000X-0.275000X0.200000X0.275000X-0.200000X0.275000X0*%
%ADD11FreePoly0,0.000000*%
%ADD12FreePoly1,0.000000*%
%ADD13RoundRect,0.235000X0.135000X0.185000X-0.135000X0.185000X-0.135000X-0.185000X0.135000X-0.185000X0*%
%ADD14RoundRect,0.235000X-0.135000X-0.185000X0.135000X-0.185000X0.135000X0.185000X-0.135000X0.185000X0*%
%ADD15RoundRect,0.318750X0.218750X0.256250X-0.218750X0.256250X-0.218750X-0.256250X0.218750X-0.256250X0*%
%ADD16RoundRect,0.349999X1.425001X-0.450001X1.425001X0.450001X-1.425001X0.450001X-1.425001X-0.450001X0*%
%ADD17O,2.000000X1.600000*%
%ADD18O,1.600000X2.000000*%
%ADD19RoundRect,0.100000X-1.750000X1.175000X-1.750000X-1.175000X1.750000X-1.175000X1.750000X1.175000X0*%
%ADD20C,2.200000*%
%ADD21C,1.000000*%
%ADD22C,6.600000*%
%ADD23RoundRect,0.350000X1.000000X0.650000X-1.000000X0.650000X-1.000000X-0.650000X1.000000X-0.650000X0*%
%ADD24RoundRect,0.300000X-0.275000X0.200000X-0.275000X-0.200000X0.275000X-0.200000X0.275000X0.200000X0*%
%ADD25RoundRect,0.100000X-0.750000X1.000000X-0.750000X-1.000000X0.750000X-1.000000X0.750000X1.000000X0*%
%ADD26RoundRect,0.100000X-1.900000X1.000000X-1.900000X-1.000000X1.900000X-1.000000X1.900000X1.000000X0*%
%ADD27RoundRect,0.240000X0.170000X-0.140000X0.170000X0.140000X-0.170000X0.140000X-0.170000X-0.140000X0*%
%ADD28RoundRect,0.350000X0.845000X-0.620000X0.845000X0.620000X-0.845000X0.620000X-0.845000X-0.620000X0*%
%ADD29O,2.390000X1.940000*%
%ADD30RoundRect,0.240000X0.140000X0.170000X-0.140000X0.170000X-0.140000X-0.170000X0.140000X-0.170000X0*%
%ADD31RoundRect,0.325000X0.250000X-0.225000X0.250000X0.225000X-0.250000X0.225000X-0.250000X-0.225000X0*%
%ADD32RoundRect,0.240000X-0.140000X-0.170000X0.140000X-0.170000X0.140000X0.170000X-0.140000X0.170000X0*%
%ADD33RoundRect,0.175000X-0.075000X0.650000X-0.075000X-0.650000X0.075000X-0.650000X0.075000X0.650000X0*%
%ADD34RoundRect,0.250000X-0.150000X0.825000X-0.150000X-0.825000X0.150000X-0.825000X0.150000X0.825000X0*%
%ADD35RoundRect,0.100000X-1.500000X1.145000X-1.500000X-1.145000X1.500000X-1.145000X1.500000X1.145000X0*%
%ADD36RoundRect,0.300000X0.275000X-0.200000X0.275000X0.200000X-0.275000X0.200000X-0.275000X-0.200000X0*%
%ADD37RoundRect,0.175000X0.075000X-0.650000X0.075000X0.650000X-0.075000X0.650000X-0.075000X-0.650000X0*%
%ADD38RoundRect,0.350000X-0.250000X-0.475000X0.250000X-0.475000X0.250000X0.475000X-0.250000X0.475000X0*%
%ADD39RoundRect,0.240000X-0.170000X0.140000X-0.170000X-0.140000X0.170000X-0.140000X0.170000X0.140000X0*%
%ADD40RoundRect,0.100000X-0.800000X-0.800000X0.800000X-0.800000X0.800000X0.800000X-0.800000X0.800000X0*%
%ADD41C,1.800000*%
%ADD42RoundRect,1.600000X1.500000X1.500000X-1.500000X1.500000X-1.500000X-1.500000X1.500000X-1.500000X0*%
%ADD43C,6.200000*%
%ADD44RoundRect,0.260000X0.160000X-0.197500X0.160000X0.197500X-0.160000X0.197500X-0.160000X-0.197500X0*%
%ADD45RoundRect,0.349999X0.450001X1.425001X-0.450001X1.425001X-0.450001X-1.425001X0.450001X-1.425001X0*%
%ADD46RoundRect,0.235000X0.185000X-0.135000X0.185000X0.135000X-0.185000X0.135000X-0.185000X-0.135000X0*%
%ADD47RoundRect,1.600000X-1.500000X-1.500000X1.500000X-1.500000X1.500000X1.500000X-1.500000X1.500000X0*%
%ADD48RoundRect,0.350000X0.475000X-0.250000X0.475000X0.250000X-0.475000X0.250000X-0.475000X-0.250000X0*%
%ADD49RoundRect,0.350000X1.500000X0.550000X-1.500000X0.550000X-1.500000X-0.550000X1.500000X-0.550000X0*%
%ADD50RoundRect,0.350000X0.620000X0.845000X-0.620000X0.845000X-0.620000X-0.845000X0.620000X-0.845000X0*%
%ADD51O,1.940000X2.390000*%
%ADD52RoundRect,0.350000X-1.100000X0.325000X-1.100000X-0.325000X1.100000X-0.325000X1.100000X0.325000X0*%
%ADD53RoundRect,0.325000X0.225000X0.250000X-0.225000X0.250000X-0.225000X-0.250000X0.225000X-0.250000X0*%
%ADD54RoundRect,0.350000X-1.000000X-0.650000X1.000000X-0.650000X1.000000X0.650000X-1.000000X0.650000X0*%
%ADD55RoundRect,0.235000X-0.185000X0.135000X-0.185000X-0.135000X0.185000X-0.135000X0.185000X0.135000X0*%
G04 APERTURE END LIST*
D10*
%TO.C,R12*%
X5323000Y20775000D03*
X6973000Y20775000D03*
%TD*%
D11*
%TO.C,JP3*%
X1180000Y21336000D03*
D12*
X2480000Y21336000D03*
%TD*%
D10*
%TO.C,R1*%
X5275000Y4900000D03*
X6925000Y4900000D03*
%TD*%
D13*
%TO.C,R37*%
X-19758000Y43309000D03*
X-20778000Y43309000D03*
%TD*%
D14*
%TO.C,R44*%
X-10536000Y54900000D03*
X-9516000Y54900000D03*
%TD*%
D15*
%TO.C,D6*%
X-4187500Y20775000D03*
X-5762500Y20775000D03*
%TD*%
D16*
%TO.C,R38*%
X-23300000Y41750000D03*
X-23300000Y47850000D03*
%TD*%
D10*
%TO.C,R13*%
X5323000Y33475000D03*
X6973000Y33475000D03*
%TD*%
%TO.C,R11*%
X5323000Y18235000D03*
X6973000Y18235000D03*
%TD*%
D17*
%TO.C,U1*%
X8890000Y-2085000D03*
X8890000Y455000D03*
X8890000Y2995000D03*
X8890000Y5535000D03*
X8890000Y8075000D03*
X8890000Y10615000D03*
X8890000Y13155000D03*
X8890000Y15695000D03*
X8890000Y18235000D03*
X8890000Y20775000D03*
X8890000Y23315000D03*
X8890000Y25855000D03*
X8890000Y28395000D03*
X8890000Y30935000D03*
X8890000Y33475000D03*
X8890000Y36015000D03*
X8890000Y38555000D03*
X8890000Y41095000D03*
X8890000Y43635000D03*
X8890000Y46175000D03*
X-8890000Y46175000D03*
X-8890000Y43635000D03*
X-8890000Y41095000D03*
X-8890000Y38555000D03*
X-8890000Y36015000D03*
X-8890000Y33475000D03*
X-8890000Y30935000D03*
X-8890000Y28395000D03*
X-8890000Y25855000D03*
X-8890000Y23315000D03*
X-8890000Y20775000D03*
X-8890000Y18235000D03*
X-8890000Y15695000D03*
X-8890000Y13155000D03*
X-8890000Y10615000D03*
X-8890000Y8075000D03*
X-8890000Y5535000D03*
X-8890000Y2995000D03*
X-8890000Y455000D03*
X-8890000Y-2085000D03*
D18*
X3810000Y46175000D03*
X1270000Y46175000D03*
X-1270000Y46175000D03*
X-3810000Y46175000D03*
D17*
X-6350000Y5535000D03*
X-6350000Y8075000D03*
%TD*%
D10*
%TO.C,R9*%
X5323000Y38555000D03*
X6973000Y38555000D03*
%TD*%
D19*
%TO.C,L1*%
X-400000Y71225000D03*
X-400000Y65175000D03*
%TD*%
D20*
%TO.C,TP4*%
X5900000Y61900000D03*
%TD*%
D21*
%TO.C,H1*%
X32600000Y75000000D03*
X33302944Y76697056D03*
X33302944Y73302944D03*
X35000000Y77400000D03*
D22*
X35000000Y75000000D03*
D21*
X35000000Y72600000D03*
X36697056Y76697056D03*
X36697056Y73302944D03*
X37400000Y75000000D03*
%TD*%
D23*
%TO.C,D16*%
X1300000Y75400000D03*
X-2700000Y75400000D03*
%TD*%
D10*
%TO.C,R4*%
X5275000Y-2032000D03*
X6925000Y-2032000D03*
%TD*%
%TO.C,R10*%
X5323000Y36015000D03*
X6973000Y36015000D03*
%TD*%
D24*
%TO.C,R24*%
X-14100000Y29525000D03*
X-14100000Y27875000D03*
%TD*%
D25*
%TO.C,U8*%
X2300000Y36550000D03*
X0Y36550000D03*
D26*
X0Y30250000D03*
D25*
X-2300000Y36550000D03*
%TD*%
D21*
%TO.C,H3*%
X32600000Y0D03*
X33302944Y1697056D03*
X33302944Y-1697056D03*
X35000000Y2400000D03*
D22*
X35000000Y0D03*
D21*
X35000000Y-2400000D03*
X36697056Y1697056D03*
X36697056Y-1697056D03*
X37400000Y0D03*
%TD*%
D27*
%TO.C,C9*%
X-15400000Y56320000D03*
X-15400000Y57280000D03*
%TD*%
D20*
%TO.C,TP15*%
X11600000Y62300000D03*
%TD*%
D28*
%TO.C,M2*%
X29950000Y34110000D03*
D29*
X29950000Y36650000D03*
X29950000Y39190000D03*
X29950000Y41730000D03*
X29950000Y44270000D03*
X29950000Y46810000D03*
%TD*%
D24*
%TO.C,R32*%
X-14100000Y21125000D03*
X-14100000Y19475000D03*
%TD*%
D10*
%TO.C,R15*%
X5275000Y-400000D03*
X6925000Y-400000D03*
%TD*%
D28*
%TO.C,J5*%
X-29740000Y6170000D03*
D29*
X-29740000Y8710000D03*
X-29740000Y11250000D03*
X-29740000Y13790000D03*
%TD*%
D16*
%TO.C,R25*%
X-23400000Y52550000D03*
X-23400000Y58650000D03*
%TD*%
D30*
%TO.C,C5*%
X-11578000Y54900000D03*
X-12538000Y54900000D03*
%TD*%
D28*
%TO.C,P2*%
X29950000Y51890000D03*
D29*
X29950000Y54430000D03*
%TD*%
D10*
%TO.C,R2*%
X5275000Y8128000D03*
X6925000Y8128000D03*
%TD*%
%TO.C,R48*%
X-8125000Y65600000D03*
X-6475000Y65600000D03*
%TD*%
D24*
%TO.C,R31*%
X-12400000Y21125000D03*
X-12400000Y19475000D03*
%TD*%
D31*
%TO.C,C19*%
X-2300000Y39125000D03*
X-2300000Y40675000D03*
%TD*%
D10*
%TO.C,R20*%
X5275000Y6500000D03*
X6925000Y6500000D03*
%TD*%
D30*
%TO.C,C2*%
X-29976000Y31496000D03*
X-30936000Y31496000D03*
%TD*%
D28*
%TO.C,P1*%
X-29740000Y51890000D03*
D29*
X-29740000Y54430000D03*
%TD*%
D13*
%TO.C,R42*%
X-13580000Y54900000D03*
X-14600000Y54900000D03*
%TD*%
D32*
%TO.C,C10*%
X-5455000Y22680000D03*
X-4495000Y22680000D03*
%TD*%
D33*
%TO.C,U4*%
X-12000000Y61200000D03*
X-12500000Y61200000D03*
X-13000000Y61200000D03*
X-13500000Y61200000D03*
X-14000000Y61200000D03*
X-14000000Y56800000D03*
X-13500000Y56800000D03*
X-13000000Y56800000D03*
X-12500000Y56800000D03*
X-12000000Y56800000D03*
%TD*%
D28*
%TO.C,E2*%
X29950000Y18870000D03*
D29*
X29950000Y21410000D03*
X29950000Y23950000D03*
X29950000Y26490000D03*
X29950000Y29030000D03*
%TD*%
D11*
%TO.C,JP5*%
X-6186000Y508000D03*
D12*
X-4886000Y508000D03*
%TD*%
D11*
%TO.C,JP2*%
X1180000Y17780000D03*
D12*
X2480000Y17780000D03*
%TD*%
D34*
%TO.C,U10*%
X-6300000Y72950000D03*
X-7570000Y72950000D03*
X-8840000Y72950000D03*
X-10110000Y72950000D03*
X-10110000Y68000000D03*
X-8840000Y68000000D03*
X-7570000Y68000000D03*
X-6300000Y68000000D03*
D35*
X-8205000Y70475000D03*
%TD*%
D36*
%TO.C,R43*%
X-6640000Y75700302D03*
X-6640000Y77350302D03*
%TD*%
D37*
%TO.C,U2*%
X-18871000Y56769000D03*
X-18371000Y56769000D03*
X-17871000Y56769000D03*
X-17371000Y56769000D03*
X-16871000Y56769000D03*
X-16871000Y61169000D03*
X-17371000Y61169000D03*
X-17871000Y61169000D03*
X-18371000Y61169000D03*
X-18871000Y61169000D03*
%TD*%
D38*
%TO.C,C26*%
X-4550000Y78400000D03*
X-2650000Y78400000D03*
%TD*%
D11*
%TO.C,JP4*%
X1180000Y14224000D03*
D12*
X2480000Y14224000D03*
%TD*%
D39*
%TO.C,C3*%
X-15400000Y61780000D03*
X-15400000Y60820000D03*
%TD*%
D24*
%TO.C,R23*%
X-12400000Y29525000D03*
X-12400000Y27875000D03*
%TD*%
D13*
%TO.C,R6*%
X-5990000Y33475000D03*
X-7010000Y33475000D03*
%TD*%
D27*
%TO.C,C6*%
X-19760000Y44381000D03*
X-19760000Y45341000D03*
%TD*%
D40*
%TO.C,C20*%
X-25002651Y63800000D03*
D41*
X-20002651Y63800000D03*
%TD*%
D10*
%TO.C,R8*%
X5323000Y13155000D03*
X6973000Y13155000D03*
%TD*%
%TO.C,R21*%
X-5800000Y24585000D03*
X-4150000Y24585000D03*
%TD*%
D42*
%TO.C,J10*%
X-16966000Y-254000D03*
D43*
X-24166000Y-254000D03*
%TD*%
D32*
%TO.C,C15*%
X30052000Y16256000D03*
X31012000Y16256000D03*
%TD*%
D27*
%TO.C,C4*%
X-20800000Y54790000D03*
X-20800000Y55750000D03*
%TD*%
D15*
%TO.C,D9*%
X-1012500Y10615000D03*
X-2587500Y10615000D03*
%TD*%
D44*
%TO.C,R45*%
X-4800000Y66502500D03*
X-4800000Y67697500D03*
%TD*%
D45*
%TO.C,R50*%
X-9550000Y52200000D03*
X-15650000Y52200000D03*
%TD*%
D10*
%TO.C,R14*%
X5323000Y30935000D03*
X6973000Y30935000D03*
%TD*%
D28*
%TO.C,J3*%
X29970000Y6170000D03*
D29*
X29970000Y8710000D03*
X29970000Y11250000D03*
X29970000Y13790000D03*
%TD*%
D32*
%TO.C,C18*%
X-15980000Y48800000D03*
X-15020000Y48800000D03*
%TD*%
D46*
%TO.C,R17*%
X-20800000Y56764000D03*
X-20800000Y57784000D03*
%TD*%
D28*
%TO.C,M1*%
X-29740000Y34110000D03*
D29*
X-29740000Y36650000D03*
X-29740000Y39190000D03*
X-29740000Y41730000D03*
X-29740000Y44270000D03*
X-29740000Y46810000D03*
%TD*%
D10*
%TO.C,R18*%
X5275000Y3300000D03*
X6925000Y3300000D03*
%TD*%
D28*
%TO.C,P3*%
X-29740000Y59510000D03*
D29*
X-29740000Y62050000D03*
%TD*%
D47*
%TO.C,J8*%
X16966000Y-254000D03*
D43*
X24166000Y-254000D03*
%TD*%
D15*
%TO.C,D7*%
X-1012500Y18235000D03*
X-2587500Y18235000D03*
%TD*%
D36*
%TO.C,R49*%
X-9900000Y64075000D03*
X-9900000Y65725000D03*
%TD*%
D20*
%TO.C,TP14*%
X1500000Y61900000D03*
%TD*%
D48*
%TO.C,C29*%
X0Y39250000D03*
X0Y41150000D03*
%TD*%
D32*
%TO.C,C12*%
X-5455000Y15060000D03*
X-4495000Y15060000D03*
%TD*%
D10*
%TO.C,R7*%
X5323000Y10615000D03*
X6973000Y10615000D03*
%TD*%
D49*
%TO.C,C42*%
X-1700000Y59000000D03*
X-7100000Y59000000D03*
%TD*%
D50*
%TO.C,J4*%
X26902000Y70198000D03*
D51*
X24362000Y70198000D03*
X21822000Y70198000D03*
X19282000Y70198000D03*
%TD*%
D33*
%TO.C,U5*%
X-16220000Y47033000D03*
X-16720000Y47033000D03*
X-17220000Y47033000D03*
X-17720000Y47033000D03*
X-18220000Y47033000D03*
X-18220000Y42633000D03*
X-17720000Y42633000D03*
X-17220000Y42633000D03*
X-16720000Y42633000D03*
X-16220000Y42633000D03*
%TD*%
D32*
%TO.C,C11*%
X-2280000Y20140000D03*
X-1320000Y20140000D03*
%TD*%
D52*
%TO.C,C24*%
X-10040000Y78700302D03*
X-10040000Y75750302D03*
%TD*%
D32*
%TO.C,C1*%
X30052000Y31496000D03*
X31012000Y31496000D03*
%TD*%
D13*
%TO.C,R36*%
X-19756000Y46357000D03*
X-20776000Y46357000D03*
%TD*%
D39*
%TO.C,C33*%
X-4800000Y70280000D03*
X-4800000Y69320000D03*
%TD*%
D53*
%TO.C,C36*%
X-6525000Y63900000D03*
X-8075000Y63900000D03*
%TD*%
D10*
%TO.C,R30*%
X-2625000Y14425000D03*
X-975000Y14425000D03*
%TD*%
D21*
%TO.C,H2*%
X-37400000Y75000000D03*
X-36697056Y76697056D03*
X-36697056Y73302944D03*
X-35000000Y77400000D03*
D22*
X-35000000Y75000000D03*
D21*
X-35000000Y72600000D03*
X-33302944Y76697056D03*
X-33302944Y73302944D03*
X-32600000Y75000000D03*
%TD*%
D15*
%TO.C,D8*%
X-4187500Y13155000D03*
X-5762500Y13155000D03*
%TD*%
D10*
%TO.C,R5*%
X5275000Y1200000D03*
X6925000Y1200000D03*
%TD*%
D11*
%TO.C,JP1*%
X1180000Y25146000D03*
D12*
X2480000Y25146000D03*
%TD*%
D30*
%TO.C,C14*%
X-29948000Y16256000D03*
X-30908000Y16256000D03*
%TD*%
D28*
%TO.C,E1*%
X-29740000Y18870000D03*
D29*
X-29740000Y21410000D03*
X-29740000Y23950000D03*
X-29740000Y26490000D03*
X-29740000Y29030000D03*
%TD*%
D28*
%TO.C,P4*%
X29950000Y59510000D03*
D29*
X29950000Y62050000D03*
%TD*%
D10*
%TO.C,R29*%
X-5800000Y16965000D03*
X-4150000Y16965000D03*
%TD*%
D50*
%TO.C,J9*%
X14710000Y70178000D03*
D51*
X12170000Y70178000D03*
X9630000Y70178000D03*
X7090000Y70178000D03*
%TD*%
D10*
%TO.C,R22*%
X-2625000Y22045000D03*
X-975000Y22045000D03*
%TD*%
D54*
%TO.C,D15*%
X-16700000Y64100000D03*
X-12700000Y64100000D03*
%TD*%
D42*
%TO.C,J1*%
X-16800000Y73000000D03*
D43*
X-24000000Y73000000D03*
%TD*%
D32*
%TO.C,C13*%
X-2280000Y12520000D03*
X-1320000Y12520000D03*
%TD*%
D13*
%TO.C,R16*%
X-5980000Y30935000D03*
X-7000000Y30935000D03*
%TD*%
D21*
%TO.C,H4*%
X-37400000Y0D03*
X-36697056Y1697056D03*
X-36697056Y-1697056D03*
X-35000000Y2400000D03*
D22*
X-35000000Y0D03*
D21*
X-35000000Y-2400000D03*
X-33302944Y1697056D03*
X-33302944Y-1697056D03*
X-32600000Y0D03*
%TD*%
D55*
%TO.C,R19*%
X-20800000Y53720000D03*
X-20800000Y52700000D03*
%TD*%
D10*
%TO.C,R3*%
X5275000Y-3600000D03*
X6925000Y-3600000D03*
%TD*%
M02*
